<?xml version="1.0" encoding="UTF-8" standalone="no"?>
<!-- Created with Inkscape (http://www.inkscape.org/) -->

<svg
   version="1.1"
   id="svg2"
   width="2829.3333"
   height="2829.3333"
   viewBox="0 0 2829.3333 2829.3333"
   sodipodi:docname="JEMA LUIS 317-07.eps"
   xmlns:inkscape="http://www.inkscape.org/namespaces/inkscape"
   xmlns:sodipodi="http://sodipodi.sourceforge.net/DTD/sodipodi-0.dtd"
   xmlns="http://www.w3.org/2000/svg"
   xmlns:svg="http://www.w3.org/2000/svg">
  <defs
     id="defs6" />
  <sodipodi:namedview
     id="namedview4"
     pagecolor="#ffffff"
     bordercolor="#000000"
     borderopacity="0.25"
     inkscape:showpageshadow="2"
     inkscape:pageopacity="0.0"
     inkscape:pagecheckerboard="0"
     inkscape:deskcolor="#d1d1d1" />
  <g
     id="g8"
     inkscape:groupmode="layer"
     inkscape:label="ink_ext_XXXXXX"
     transform="matrix(1.3333333,0,0,-1.3333333,0,2829.3333)">
    <g
       id="g10"
       transform="scale(0.1)">
      <path
         d="m 19541.4,17138.2 c -216.3,500.7 -556.9,991.7 -985.1,1420 -1227.1,1227 -2841.3,1609 -3598.7,851.7 -98.3,-98.3 -179.8,-214.7 -242.2,-345.8 -0.3,-0.8 -0.6,-3.1 -0.7,-4 -2.2,-31.7 -5.2,-63.6 -8.1,-94.7 -6.8,-73.4 -13.2,-142.8 -9.3,-195.2 13.3,-169.7 50.7,-338.7 111,-502.3 0.8,-2.3 2.8,-4 5.1,-4.6 756.1,-196.4 1522.4,-654.5 2157.8,-1289.9 416.9,-416.9 752,-879.8 995.9,-1375.9 1,-2 2.8,-3.4 4.9,-3.9 207.6,-52.2 415.7,-78.5 619.9,-78.5 31.1,0 62.1,0.6 93.1,1.8 388.8,15.3 771.2,131.5 1094,243.3 2.6,0.9 4.5,3.2 4.9,6 52.2,409.4 -31.7,883.8 -242.5,1372"
         style="fill:#b85139;fill-opacity:1;fill-rule:nonzero;stroke:none"
         id="path12" />
      <path
         d="m 14721.4,18964 c 2.9,31.2 5.8,63.2 8.1,95 0.3,3.4 -1.9,6.6 -5.2,7.6 -3.7,1.2 -7,-0.4 -8.6,-3.5 -3.4,-6 -7.2,-12.8 -9.4,-18.8 l -462.5,-672.7 c -1.5,-2.2 -1.7,-5 -0.6,-7.4 1.1,-2.4 3.4,-4 6.1,-4.2 183.6,-14.6 373.4,-47.1 564.1,-96.7 0.6,-0.2 1.2,-0.2 1.9,-0.2 2.1,0 4,0.8 5.5,2.4 1.8,2 2.4,4.9 1.4,7.5 -59.9,162.4 -96.9,330 -110.1,498.3 -3.8,51.2 2.5,120 9.3,192.7"
         style="fill:#a8432c;fill-opacity:1;fill-rule:nonzero;stroke:none"
         id="path14" />
      <path
         d="m 19781.2,15772.9 c -1.9,1.7 -4.7,2.1 -7.1,1.3 -321.7,-111.4 -702.8,-227.3 -1089.7,-242.5 -232.7,-9.1 -471,16.5 -708.8,76.2 -2.9,0.7 -5.7,-0.3 -7.6,-2.5 -1.8,-2.3 -2.1,-5.3 -0.9,-7.9 219.5,-446.2 354.3,-908.1 389.9,-1335.8 0.3,-2.7 1.9,-5 4.2,-6.1 1,-0.5 2.1,-0.7 3.2,-0.7 1.5,0 2.9,0.4 4.2,1.2 l 654.4,443 c 146.9,64.2 276.4,151.8 385.1,260.5 206.5,206.5 333,477.9 375.8,806.6 0.3,2.6 -0.7,5.1 -2.7,6.7"
         style="fill:#a8432c;fill-opacity:1;fill-rule:nonzero;stroke:none"
         id="path16" />
      <path
         d="m 18371.8,14262.9 c -35.7,429.6 -171.1,893.4 -391.3,1341.1 -244.7,497.6 -580.8,961.9 -998.7,1379.9 -637.3,637.2 -1406,1096.7 -2164.7,1293.8 -191.5,49.7 -382.2,82.4 -566.6,97.1 -670.4,53.7 -1231.2,-125.2 -1622.4,-516.5 -437.5,-437.4 -610.6,-1100.4 -487.6,-1867 l -755.9,-756 c -176.4,-176.2 -439.1,-239.2 -669.6,-160.3 -1222.55,418.6 -2536.94,491.7 -3800.92,211.6 -1298.42,-287.8 -2484.6,-938.9 -3430.19,-1883 C 2171.05,12093 1436.23,10359.2 1414.69,8521.5 c -21.47,-1838 672.95,-3588 1955.4,-4927.7 665.82,-695.5 1448.23,-1237 2325.4,-1609.3 845.92,-359 1742.88,-546.2 2666.13,-556.3 26.22,-0.2 52.27,-0.4 78.5,-0.4 896.32,0 1771.08,167.7 2601.08,498.9 884.5,352.9 1677.2,876.1 2356.1,1555.1 944.6,944.5 1596.6,2129.6 1885.6,3427.3 281.3,1263.1 209.7,2576.9 -207.1,3799.5 -81.6,239.6 -23.8,497 150.9,671.7 l 762.4,762.3 c 766.7,-122.9 1429.6,50.1 1867,487.5 393.5,393.6 571.9,958.2 515.7,1632.8"
         style="fill:#bdd8bc;fill-opacity:1;fill-rule:nonzero;stroke:none"
         id="path18" />
      <path
         d="m 15641.8,15643.9 c -391.3,391.2 -860.8,659.7 -1322.2,755.9 -461.8,96.4 -863.4,9.4 -1130.4,-244.8 -2.1,-1.9 -2.8,-4.8 -2.1,-7.4 0.8,-2.7 3.1,-4.7 5.8,-5.2 124.7,-22.8 253.9,-120.1 242.9,-279.6 -18.6,-270.3 -190.7,-480.5 -357.2,-683.8 l -4.9,-5.9 c -157.4,-192.2 -315.9,-356 -514.2,-531 -1.1,-1.1 -2,-2.5 -2.3,-4.1 -34.2,-163.7 -51.6,-316.5 -52,-453.9 0,-3.9 3.1,-7.2 7,-7.4 h 0.4 c 3.8,0 7,2.9 7.4,6.7 15,145.1 67.4,263.4 155.8,351.8 314.5,314.6 987.1,153.9 1499.1,-358.2 512,-512 672.7,-1184.5 358.2,-1499.1 -69.1,-69 -158.5,-116.7 -265.8,-141.5 -3.8,-0.9 -6.2,-4.5 -5.7,-8.4 0.6,-3.6 3.7,-6.3 7.3,-6.3 h 0.5 c 404.5,25.7 857.8,153.9 1345.7,380.4 208.6,42.8 384.2,134.3 521.8,271.9 544.4,544.5 322.3,1652.4 -495.1,2469.9"
         style="fill:#de5d3d;fill-opacity:1;fill-rule:nonzero;stroke:none"
         id="path20" />
      <path
         d="m 12665.3,14545.7 c -90.8,-90.8 -144.7,-212.2 -160,-360.8 -37.1,-358.4 161.5,-802.5 518.2,-1159.2 330.8,-330.8 732.1,-523.2 1070,-523.2 61.3,0 120.7,6.4 177.1,19.4 110.1,25.5 201.9,74.5 273,145.6 320.3,320.3 159.6,1002.2 -358.2,1520 -517.9,517.8 -1199.7,678.6 -1520.1,358.2"
         style="fill:#b85139;fill-opacity:1;fill-rule:nonzero;stroke:none"
         id="path22" />
      <path
         d="m 6541.01,2668.4 c 1284.59,-416.8 2682.6,-396.3 3955.29,56.5 -1274.96,-459 -2670.85,-478.4 -3955.29,-56.5 z m 7940.99,5504 -11.6,-9.7 c -109.9,-90.6 -2732.5,-2188.8 -6417.27,535.1 -39.64,29.4 -79.19,58 -118.49,86.1 C 6698.97,9667.2 5534.21,10025 4473.71,9847.7 l -3.88,-0.7 -1.62,-3.5 c -34.78,-74.8 -66.16,-145.2 -93.37,-209.2 -121.04,-284.8 -217.19,-573.5 -303.04,-843 -22.06,-69.3 -45.21,-137.5 -67.67,-203.5 -49.73,-146.3 -96.74,-284.5 -132.17,-432.8 l -2.59,-10.8 10.93,1.8 c 102.35,16.5 205.79,-16.8 277.86,-88.9 124.81,-124.7 124.81,-327.8 0,-452.5 -124.68,-124.8 -327.87,-124.8 -452.56,-0.1 -47.47,47.5 -78.21,108.4 -88.92,176.1 l -0.87,5.7 -5.84,0.6 c -113.51,9.2 -217.3,81.4 -252.45,175.4 l -0.81,2.2 c -120.29,322.3 -244.63,655.6 -282.43,1004.1 -8.34,77.2 -13.37,157.9 -15.34,246.6 l -0.35,14.6 -11.58,-8.9 c -86.82,-66.4 -171.64,-137.8 -251.98,-212 -264.32,-244.5 -415.93,-578.2 -426.92,-939.8 -1.63,-53.8 -0.12,-107.1 4.34,-158.4 84.63,-971.5 406.02,-1918.8 929.5,-2739.6 l 4.34,-6.9 c 1.62,-2.8 3.3,-5.5 4.98,-8.1 37.63,-58.6 79.71,-121.2 128.74,-191.5 5.56,-7.9 10.95,-15.9 16.39,-23.9 7.75,-11.5 15.5,-22.9 23.55,-34.1 34.21,-47.9 70.51,-95.6 105.59,-141.8 7.99,-10.6 15.87,-21.1 23.8,-31.7 16.31,-21.8 32.64,-43.6 49.66,-65 18.12,-22.9 36.94,-45.5 55.75,-68 l 45.32,-54.8 c 28.31,-34.5 57.54,-70.1 87.59,-104.5 9.96,-11.5 20.32,-22.7 30.62,-33.9 7.81,-8.4 15.57,-16.8 23.21,-25.3 120.36,-134.3 235.37,-253.2 351.62,-363.3 1127.82,-1068.9 2612.41,-1657 4182.37,-1657 5.45,0 11.12,0 16.62,0.1 1572.9,4.1 3059.5,597.2 4186,1669.9 l 16.4,16 c 29.5,28.4 61.3,59.1 93.9,91.8 0.9,0.8 1.8,1.8 2.7,2.7 l 1.7,1.9 c 57.8,58 116.5,119.5 179.3,188.2 11.8,12.9 23.4,25.9 34.9,39 l 18.3,20.7 c 46,51.6 86.1,97.8 122.5,141.3 19.5,23.3 38.8,46.6 57.9,70.1 36.5,44.9 74.1,92.5 111.7,141.6 l 13.5,17.7 c 12.9,16.7 25.7,33.4 38.3,50.2 40.8,54.9 81.4,111.6 124.1,173.5 4,5.8 8.1,11.5 12.2,17.3 5.1,7 10.1,14.1 15,21.3 46.4,68.2 93.4,140.9 139.9,216 7.8,12.5 15.3,25.2 22.7,37.8 4.8,8.2 9.7,16.5 14.6,24.6 34.9,58 65.2,109.9 92.6,158.6 14.7,26.1 28.9,52.5 43.2,78.8 l 2.1,4 c 25.9,47.8 51.5,96.6 76,145 14.6,28.8 29.1,57.5 43.2,86.4 22.4,46.1 45.3,95.2 72.1,154.3 l 12.1,26.5 c 7.7,16.8 15.5,33.6 22.8,50.6 34.7,79.4 65.4,153.7 93.8,227.2 4.5,11.4 8.7,23.1 12.8,34.6 3.2,8.7 6.3,17.4 9.5,26 25.2,67 45.1,122.3 62.9,174.3 8.4,24.5 16.3,49.2 24.3,74 l 7,22 c 16.9,52.1 31.4,98.8 44.4,142.9 10.2,34.3 20.1,68.7 29.5,103.2 11.4,41 23.3,86 37.3,141.7 l 5.9,23.7 c 6.6,25.9 13.1,51.8 19.1,77.8 13.8,59.1 25.8,117 35.7,165.9 2,9.8 4.2,19.7 6.2,29.5 3.5,16.1 7,32.2 10.1,48.3 14,73.6 26.8,149.7 39.3,232.5 3.4,23.4 6.5,46.9 9.5,70.3 l 3.8,29.2 c 5.9,43.9 12.7,95.6 18.2,147 3.9,35.8 7.2,71.6 10.5,107.3 4.3,47 8.2,95.4 11.4,143.9 0.6,9.4 1.4,18.6 2.3,27.9 1,11.9 2,23.7 2.7,35.5 l 0.1,1.8 -36.1,78.7"
         style="fill:#cd1553;fill-opacity:1;fill-rule:nonzero;stroke:none"
         id="path24" />
      <path
         d="m 9647.94,3744.6 c -307.33,132.6 -748.09,208.6 -1209.21,208.6 -895.12,0 -1623.34,-282.3 -1623.34,-629.2 0,-167.1 165.78,-324.2 466.8,-442.4 307.44,-120.5 718.15,-186.9 1156.54,-186.9 895.18,0 1623.37,282.3 1623.37,629.3 0,156 -147.06,305.4 -414.16,420.6"
         style="fill:#a11540;fill-opacity:1;fill-rule:nonzero;stroke:none"
         id="path26" />
      <path
         d="m 14481.5,8160.6 c -212.8,374 -1373.3,2225.6 -3319.4,1963.9 -949.5,-127.9 -1631.85,-503.1 -2291.76,-865.8 -319.26,-175.6 -620.79,-341.3 -942.82,-474 l -12.33,-5.1 10.88,-7.8 c 39.19,-28.1 78.62,-56.5 118.27,-85.9 C 9485.68,7620.4 10764.8,7291.1 11796,7291.2 c 1611.5,0.1 2616.6,804.6 2683.8,860.1 l 4.8,4 -3.1,5.3"
         style="fill:#ed1c69;fill-opacity:1;fill-rule:nonzero;stroke:none"
         id="path28" />
      <path
         d="m 6033.32,8007.2 c -269.93,269.9 -709,269.7 -978.83,0 -269.8,-269.8 -269.8,-708.9 0,-978.8 134.94,-134.9 312.2,-202.4 489.45,-202.4 177.19,0 354.45,67.5 489.38,202.4 269.81,269.9 269.81,709 0,978.8"
         style="fill:#ed1c69;fill-opacity:1;fill-rule:nonzero;stroke:none"
         id="path30" />
      <path
         d="m 11896.4,6026.6 c 0,88 -34.3,170.7 -96.4,232.9 -128.4,128.3 -337.3,128.4 -465.8,-0.1 -128.3,-128.4 -128.3,-337.3 0,-465.7 62.2,-62.1 145,-96.4 232.9,-96.4 88,0 170.6,34.3 232.8,96.4 62.2,62.3 96.5,144.9 96.5,232.9"
         style="fill:#ed1c69;fill-opacity:1;fill-rule:nonzero;stroke:none"
         id="path32" />
      <path
         d="m 7342.33,4629.8 c -148.65,-148.7 -148.65,-390.8 0,-539.4 72.07,-72.1 167.83,-111.8 269.7,-111.8 101.94,0 197.69,39.7 269.7,111.7 72.07,72.1 111.79,167.8 111.79,269.8 0,101.9 -39.72,197.6 -111.73,269.7 -148.71,148.6 -390.63,148.7 -539.46,0"
         style="fill:#ed1c69;fill-opacity:1;fill-rule:nonzero;stroke:none"
         id="path34" />
      <path
         d="m 3877.99,8160.6 -4.92,-0.8 -1.16,-4.8 c -16.78,-70.5 -29.12,-134 -37.86,-194.2 -20.26,-140.3 -129.2,-182.2 -224.08,-173.9 l -9.37,0.7 1.5,-9.3 c 11.17,-70.8 43.36,-134.5 92.97,-184.3 65.29,-65.2 151.08,-97.8 236.81,-97.8 85.74,0 171.52,32.6 236.82,97.8 130.54,130.6 130.54,343.1 0,473.7 -75.49,75.4 -184.08,110.4 -290.71,92.9"
         style="fill:#ed1c69;fill-opacity:1;fill-rule:nonzero;stroke:none"
         id="path36" />
      <path
         d="m 6434.42,5856.3 -3.41,-3.4 c -52.21,-52.2 -121.63,-81 -195.49,-81 -73.92,0 -143.38,28.8 -195.6,80.9 -52.22,52.4 -80.99,121.8 -80.99,195.7 0,73.9 28.77,143.4 80.93,195.6 52.28,52.2 121.74,81 195.66,81 73.81,0 143.28,-28.8 195.49,-81 52.21,-52.2 80.98,-121.6 81.04,-195.6 -0.06,-72.4 -27.62,-140.4 -77.63,-192.2 z m -198.67,570.5 h -0.46 c -100.95,0 -195.84,-39.3 -267.33,-110.7 -71.49,-71.5 -110.79,-166.6 -110.73,-267.6 -0.06,-101 39.24,-196 110.73,-267.4 71.43,-71.5 166.38,-110.9 267.33,-110.9 h 0.46 c 98.41,0 191.15,37.5 261.94,105.6 h 0.06 l 5.28,5.2 c 1.32,1.4 2.71,2.8 4.04,4.2 l 1.1,1.1 c 68.2,70.8 105.65,163.7 105.59,262.2 0.06,101 -39.25,196.1 -110.8,267.6 -71.49,71.4 -166.37,110.7 -267.21,110.7"
         style="fill:#ed1c69;fill-opacity:1;fill-rule:nonzero;stroke:none"
         id="path38" />
      <path
         d="m 8625.36,4937.3 -3.19,-3.1 c -52.21,-52.3 -121.68,-81.1 -195.54,-81.1 -73.93,0 -143.39,28.8 -195.55,80.9 -52.27,52.4 -81.04,121.8 -81.1,195.7 0.06,73.9 28.83,143.3 81.1,195.6 52.16,52.2 121.62,81 195.55,81 73.86,0 143.33,-28.8 195.54,-80.9 52.21,-52.3 80.99,-121.8 81.04,-195.7 -0.05,-72.4 -27.66,-140.5 -77.85,-192.4 z M 8426.85,5508 h -0.45 c -100.9,0 -195.79,-39.3 -267.33,-110.8 -71.49,-71.5 -110.8,-166.5 -110.74,-267.5 -0.06,-101.1 39.31,-196.1 110.74,-267.4 71.44,-71.5 166.37,-110.9 267.33,-110.9 h 0.45 c 98.47,0 191.22,37.5 262.01,105.7 l 0.06,-0.1 5.2,5.2 c 1.46,1.5 2.84,2.8 4.23,4.3 l 0.99,1 c 68.19,70.8 105.64,163.6 105.58,262.2 0.06,101 -39.25,196 -110.74,267.5 -71.49,71.4 -166.43,110.8 -267.33,110.8"
         style="fill:#ed1c69;fill-opacity:1;fill-rule:nonzero;stroke:none"
         id="path40" />
      <path
         d="m 13068,6421.9 -2.7,-2.7 c -51.9,-50.5 -120.3,-78.3 -192.8,-78.3 -74,0 -143.4,28.8 -195.5,81 -52.3,52.2 -81.1,121.7 -81.1,195.6 0,73.9 28.8,143.4 81,195.5 v 0 c 52.3,52.3 121.7,81.1 195.6,81.1 73.8,0 143.3,-28.8 195.6,-81.1 52.2,-52.1 80.9,-121.6 80.9,-195.5 0,-73.8 -28.7,-143.3 -81,-195.6 z m 71.9,463.1 c -71.4,71.5 -166.3,110.8 -267.2,110.8 h -0.5 c -100.9,0 -195.8,-39.3 -267.2,-110.8 -71.5,-71.5 -110.8,-166.5 -110.8,-267.5 0,-101 39.3,-196.1 110.8,-267.6 71.4,-71.4 166.3,-110.7 267.2,-110.7 h 0.5 c 98.5,0 191.2,37.4 262,105.6 l 1.1,1.1 c 1.4,1.3 2.8,2.7 4.1,4 l 5.3,5.3 h -0.1 c 68.3,70.9 105.7,163.7 105.7,262.3 0,101 -39.4,196 -110.9,267.5"
         style="fill:#ed1c69;fill-opacity:1;fill-rule:nonzero;stroke:none"
         id="path42" />
      <path
         d="m 12631.8,4871.2 c -80.8,-80.8 -188.4,-125.4 -302.8,-125.5 -114.4,0.1 -222,44.7 -302.8,125.5 -80.9,80.8 -125.4,188.4 -125.4,302.8 0,114.4 44.5,222 125.3,302.9 81,80.8 188.5,125.3 302.9,125.4 114.4,-0.1 221.9,-44.6 302.8,-125.4 80.9,-81 125.5,-188.5 125.5,-302.9 0,-114.3 -44.6,-221.9 -125.5,-302.8 z m -302.6,832.7 h -0.4 c -141.4,0 -274.5,-55.1 -374.6,-155.1 -100,-100.1 -155.2,-233.2 -155.1,-374.8 -0.1,-141.5 55.1,-274.6 155.2,-374.8 100.1,-100 233.1,-155.1 374.5,-155.1 h 0.4 c 141.5,0 274.5,55.1 374.6,155.2 100.1,100.1 155.2,233.2 155.2,374.7 0,141.5 -55.1,274.6 -155.2,374.8 -100.1,100 -233.1,155.1 -374.6,155.1"
         style="fill:#ed1c69;fill-opacity:1;fill-rule:nonzero;stroke:none"
         id="path44" />
      <path
         d="m 16126.4,13184.5 c -135.5,-135.6 -308.6,-225.7 -515.9,-268.5 -487.8,-226.2 -939.4,-353.9 -1343.2,-379.6 -356,-82.4 -851.9,118.4 -1233.3,499.7 -353.7,353.7 -550.6,793.3 -514,1148 0.4,136.4 17.8,288.1 51.7,450.9 0.7,3.1 -0.8,6.3 -3.6,7.9 -2.7,1.7 -6.1,1.3 -8.6,-0.8 -2.8,-2.5 -5.5,-5 -8.1,-7.5 -2.8,-2.5 -5.6,-5.1 -8.5,-7.7 -112.4,-98.5 -287.2,-82.4 -391.4,-9.9 -97.9,68.2 -129.2,172.6 -85.7,286.3 25.4,66.4 49.8,126.6 74.7,184.2 1.5,3.3 0.4,7.1 -2.6,9.1 -2.9,1.9 -6.9,1.6 -9.4,-0.9 l -943.9,-944 c -109.9,-109.8 -273.8,-142.3 -417.3,-83 -1143.33,472.6 -2389.24,585.6 -3603.02,327.1 -1247.54,-265.7 -2364.72,-908.2 -3230.83,-1858.1 -558.97,-613 -978.66,-1322.2 -1247.37,-2107.6 -260.08,-760 -367.01,-1554.5 -317.97,-2361.7 0.23,-3.8 3.47,-6.9 7.41,-6.9 0.06,0 0.06,0 0.11,0 3.94,0 7.18,3.2 7.3,7.2 10.88,357.5 160.81,687.5 422.17,929.3 80,74 164.4,145 250.94,211.1 1.86,1.4 2.95,3.7 2.9,6.1 -5.9,264.3 21.7,549.4 82.03,847.5 127.87,631.3 423.27,1277.7 854.42,1869.2 454.76,623.9 1002.67,1135.2 1628.6,1519.6 303.16,186.2 649.51,340.2 1058.77,470.6 522.61,166.6 920.59,182.9 1373.56,56.1 220.09,-61.6 371.29,-234.9 404.4,-463.5 34.33,-237.2 -68.07,-462.3 -267.26,-587.4 -28.66,-17.9 -56.85,-36 -84.75,-53.8 -139.51,-89.2 -271.26,-173.4 -429.12,-234.4 -92.33,-35.6 -188.25,-66.5 -281.05,-96.3 -101.47,-32.6 -206.37,-66.4 -307.27,-106.6 -214,-85.4 -446.94,-203.7 -712.25,-362 -270.21,-161.2 -418.41,-270.1 -634.22,-466.2 -220.13,-200.1 -420.44,-408.9 -595.31,-620.7 -213.78,-258.9 -468.48,-686.5 -681.28,-1143.8 -1.16,-2.5 -0.87,-5.4 0.81,-7.6 1.68,-2.2 4.28,-3.1 7.12,-2.8 1056.92,176.6 2217.56,-180.4 3449.93,-1061.3 2.08,-1.5 4.75,-1.8 7.12,-0.8 322.79,133 624.67,299 944.33,474.7 658.7,362.1 1339.78,736.6 2286.58,864.1 1938,260.8 3092.6,-1584 3304.6,-1956.5 1,-1.9 2.9,-3.2 5,-3.6 0.8,-0.1 1.6,-0.2 2.4,-0.1 l 26.8,-58.2 c 1.4,-3.1 4.9,-4.6 8.1,-4.2 3.4,0.6 5.8,3.5 6,6.9 51.7,912.4 -104.1,1837.7 -450.7,2675.9 -59.2,143.3 -26.6,306.8 83.2,416.6 0.1,0 0.1,0 0.1,0 l 1987.3,1987.4 c 2.9,2.9 2.9,7.6 0,10.5 -2.8,2.9 -7.6,2.9 -10.5,0"
         style="fill:#7ea9a2;fill-opacity:1;fill-rule:nonzero;stroke:none"
         id="path46" />
      <path
         d="m 2221.3,7491.6 c -15.17,145.5 -24.66,293.8 -33.8,437.2 -10.48,163.7 -21.31,332.9 -40.7,498.9 -9.95,85.7 -66.34,147.9 -143.62,158.5 -77.11,10.9 -148.42,-34.4 -181.13,-114.5 -125.61,-307.4 -166.83,-646.5 -126.02,-1036.6 l 3.24,-31.5 c 30.1,-290.5 67.56,-652 300.96,-845.2 36.93,-30.5 81.45,-46.7 125.61,-46.6 17.31,0 34.56,2.4 51.3,7.5 54.34,16.5 93.89,57.6 111.2,115.7 56.61,189.9 15.46,398.8 -24.26,600.8 -17.6,89.2 -34.15,173.4 -42.78,255.8"
         style="fill:#7ea9a2;fill-opacity:1;fill-rule:nonzero;stroke:none"
         id="path48" />
      <path
         d="m 2015.28,9080.5 c 154.15,0 224.43,120.3 224.43,232.2 0,111.6 -70.28,231.9 -224.43,231.9 -154.16,0 -224.43,-120.4 -224.43,-232.2 0,-111.7 70.27,-231.9 224.43,-231.9"
         style="fill:#7ea9a2;fill-opacity:1;fill-rule:nonzero;stroke:none"
         id="path50" />
      <path
         d="m 10440.4,2367.6 c -188.2,-15.7 -374.8,-59 -555.29,-100.9 -94.48,-21.8 -192.13,-44.5 -288.74,-62.9 -159.08,-30.3 -322.73,-50.2 -481.05,-69.5 -137.55,-16.8 -279.72,-34.1 -418.65,-58.2 -61.59,-10.6 -100.9,-55 -105.06,-118.6 -4.05,-62.5 31.03,-141.2 104.13,-164 196.08,-61.2 408,-90.5 620.62,-90.5 461.48,0 926.14,138.2 1237.74,389.6 47.5,38.3 61.4,105.5 35.1,171 -22.4,56.1 -76.8,110 -148.8,104"
         style="fill:#7ea9a2;fill-opacity:1;fill-rule:nonzero;stroke:none"
         id="path52" />
      <path
         d="m 11290.8,2673.9 c -0.2,0.3 -0.4,0.5 -0.7,0.7 l -47.7,36.8 c -37.2,21.5 -77.7,32.5 -120.4,32.6 -33.6,1.4 -64.4,-5.8 -91.9,-20.3 -29.7,-9.7 -55.9,-26.5 -77.3,-49.5 -23.4,-21.8 -40.2,-48 -49.5,-76.6 -15,-28.6 -22,-59.9 -20.7,-93.7 l 8.5,-62.7 c 11.3,-40.4 32,-75.9 62.2,-106.1 l 47.7,-36.8 c 37.1,-21.5 77.7,-32.5 120.4,-32.6 2.6,-0.2 5.1,-0.2 7.5,-0.2 30.3,0 59,7 84.4,20.5 29.8,9.6 55.9,26.4 77.3,49.5 23.4,21.7 40.2,47.9 49.5,76.6 15,28.5 22,59.8 20.7,93.7 -2.7,20.5 -5.5,41.1 -8.5,62.7 -11.3,40.3 -32,75.7 -61.5,105.4"
         style="fill:#7ea9a2;fill-opacity:1;fill-rule:nonzero;stroke:none"
         id="path54" />
      <path
         d="m 14987.7,10035.2 c -43,205.6 -91.7,438.7 -282.2,538.5 -79.3,41.7 -172.2,17.2 -216.4,-56.9 -97,-162.3 -49.7,-349.7 -4,-531 9.8,-38.7 19,-75.3 26.8,-111.6 47.3,-220.1 101,-469.7 208.5,-695.6 29,-60.9 93.1,-85.9 152.4,-85.9 10,0 19.9,0.7 29.5,2.1 76.3,11 132.3,60.6 142.8,126.5 34.5,216.1 20.7,459.1 -42.3,743.2 -5.1,22.8 -10,46.5 -15.1,70.7"
         style="fill:#7ea9a2;fill-opacity:1;fill-rule:nonzero;stroke:none"
         id="path56" />
      <path
         d="m 9730.72,14530.7 45.32,-10.9 c 187.39,-45.4 342.86,-65.9 505.96,-65.9 23.7,0 47.5,0.4 71.5,1.3 93.2,3.2 168.9,63.8 192.9,154.3 23.3,88.4 -12.1,176.7 -90.3,224.9 -161.4,99.4 -325,169.9 -530.48,228.7 -15.68,4.6 -31.31,9.1 -46.88,13.6 -174.47,50.7 -339.16,98.7 -522.44,61.7 -80.28,-16.2 -144.88,-81.9 -168.57,-171.6 -23.73,-89.8 0,-178.9 61.83,-232.6 140.72,-122.2 306.11,-161.7 481.16,-203.5"
         style="fill:#7ea9a2;fill-opacity:1;fill-rule:nonzero;stroke:none"
         id="path58" />
      <path
         d="m 15543.2,17036.2 c -2.9,1.8 -6.6,1.4 -9,-0.8 -66.3,-60.7 -148.8,-96.9 -232,-101.9 -214,-13.2 -441.7,46.7 -661.9,104.6 -52.4,13.8 -102,26.8 -151.4,38.9 -66.5,16.2 -134.2,28.6 -199.6,40.4 -211.3,38.5 -410.8,74.8 -571.8,233.8 -54.1,53.4 -91.4,133 -102.3,218.2 -0.2,2 -1.3,3.8 -2.9,5 -1.6,1.2 -3.7,1.8 -5.7,1.4 -366.6,-65.2 -675.6,-238 -893.6,-499.9 -166.8,-200.3 -104.1,-440 44.1,-573.3 128.7,-115.8 335.4,-153.5 507,23.3 284.9,293.5 737.7,414.5 1211.2,323.6 280.2,-53.8 534.6,-165.8 767.7,-278.7 69.6,-33.7 143.1,-66.5 214.1,-98.2 160.4,-71.6 326.2,-145.6 470.1,-239.7 22.2,-14.5 47.1,-21.7 72.3,-21.7 30.4,0 61.2,10.4 88.8,30.9 52.3,39.1 75.1,101.5 57.9,158.9 -95.8,320.2 -353.7,480.3 -603,635.2"
         style="fill:#7ea9a2;fill-opacity:1;fill-rule:nonzero;stroke:none"
         id="path60" />
      <path
         d="m 16638.7,15482.7 1.7,-1.5 c 0.4,-0.8 0.8,-1.5 1.2,-2.3 0.4,-0.9 0.9,-1.9 1.1,-2.4 0.1,-0.2 0.6,-1.8 0.7,-1.9 3.7,-9.9 8,-19.5 12.3,-29.1 l 2.9,-6.4 c 0.6,-2.1 1.5,-4.6 2.9,-8.5 0.8,-2.6 1.4,-5.3 2,-7.9 l 0.4,-1.7 c 5.9,-96.8 84.4,-196.9 193,-196.9 2.7,0 5.3,0 8,0.1 112.6,5.1 195.2,87.7 200.8,200.8 4.7,93.3 -24,184.3 -78.8,249.6 -41.9,50.2 -94.7,85.6 -176.2,118.5 -74.1,29.8 -173.7,-21.3 -206.6,-83.7 -39.6,-74.9 -27.8,-165.6 28.8,-220.7 2,-1.9 3.9,-4 5.8,-6"
         style="fill:#7ea9a2;fill-opacity:1;fill-rule:nonzero;stroke:none"
         id="path62" />
      <path
         d="m 17705.5,13951.5 c -25,62.1 -95,110.2 -162.8,111.7 -1.2,0 -2.3,0 -3.4,0 -51.6,0 -92.3,-27.1 -114.7,-76.5 -78.6,-172.5 -189.4,-392.1 -349.9,-561.2 -129.1,-135.9 -258,-204.8 -407.4,-284.6 -50.1,-26.7 -102.1,-54.5 -156.1,-86.1 -121.1,-70.7 -175.8,-205.8 -139.5,-344.3 37.4,-142.7 154.1,-236.3 297.3,-238.6 4.1,0 8.2,-0.1 12.4,-0.1 319.5,0.1 650.5,193.9 866.8,508.3 216.3,314.9 275.2,678 157.3,971.4"
         style="fill:#7ea9a2;fill-opacity:1;fill-rule:nonzero;stroke:none"
         id="path64" />
      <path
         d="m 8060.31,13992.5 c -456.03,127.6 -856.44,111.4 -1382.07,-56.2 -410.42,-130.9 -757.8,-285.3 -1062,-472.2 -627.56,-385.4 -1176.91,-898 -1632.77,-1523.6 -432.43,-593.1 -728.75,-1241.4 -856.98,-1874.9 -60.6,-299 -88.34,-585.3 -82.37,-850.8 2.02,-89.1 7.06,-170.2 15.45,-247.8 37.98,-350.3 162.67,-684.5 283.25,-1007.6 l 0.81,-2.3 c 37.1,-99.2 146.11,-175.3 265.18,-185.1 7.69,-0.6 15.57,-0.9 23.45,-0.9 95.45,0 196.41,48.6 216.5,187.6 8.62,59.7 20.89,122.8 37.57,192.9 35.36,147.6 82.2,285.5 131.8,431.4 22.47,66.1 45.74,134.4 67.79,203.8 85.73,269.2 181.77,557.5 302.59,841.7 27.09,63.8 58.39,134.1 93.13,208.7 212.28,456.3 466.23,882.7 679.32,1140.7 174.41,211.3 374.18,419.5 593.81,619.1 214.99,195.3 362.6,303.9 631.9,464.5 264.54,157.8 496.79,275.9 710.05,360.9 100.49,40 205.15,73.7 306.34,106.3 93.02,29.9 189.12,60.8 281.85,96.6 159.25,61.5 291.64,146.1 431.79,235.7 27.9,17.8 56.03,35.8 84.63,53.8 204.23,128.2 309.24,358.9 274.04,602.1 -33.98,234.5 -189.18,412.3 -415.06,475.6"
         style="fill:#eef1ec;fill-opacity:1;fill-rule:nonzero;stroke:none"
         id="path66" />
      <path
         d="m 4550.19,5806.9 -13.96,27.1 c -29.99,111.6 -76.06,220.5 -120.63,325.8 -38.68,91.4 -78.62,186 -107.16,280.4 -64.66,213.9 -255.86,288 -416.61,266.2 -160.47,-21.5 -325.1,-143.5 -331.07,-367.4 -11.51,-431.8 223.51,-966.3 681.93,-1106.2 29.34,-9 58.8,-13.4 87.87,-13.4 74.56,0 146.22,29.1 204.63,84.7 86.3,82.1 122.43,202.7 94.18,314.9 -16.96,67.4 -48.63,128.7 -79.18,187.9"
         style="fill:#eef1ec;fill-opacity:1;fill-rule:nonzero;stroke:none"
         id="path68" />
      <path
         d="m 11326.7,13697.5 c -102.2,84.5 -192.7,126.8 -302.4,141.5 -68.6,9.3 -141.9,18.3 -218.1,18.7 h -2.6 c -205.4,0 -380.9,-155.6 -408.7,-363 -25.7,-191.2 97.5,-428.4 300.8,-459.5 53.1,-8.2 99.3,-17.9 141.2,-29.8 33.5,-9.5 62.6,-16.5 103.3,-21.9 19.5,-5.3 39.1,-7.9 58.7,-7.9 19.3,0 38.5,2.6 57.4,7.7 0.6,0.1 1.3,0.2 2,0.3 10.2,-6.2 36,-4.8 89.6,0.5 14.8,1.5 29,2.5 34.2,2.7 85.9,-3 153.1,10.5 239.6,47.5 131.9,56.2 159.3,214.3 141.1,343.5 -17.9,126.6 -143.4,243.2 -236.1,319.7"
         style="fill:#eef1ec;fill-opacity:1;fill-rule:nonzero;stroke:none"
         id="path70" />
      <path
         d="m 13195.6,16157 c -44.4,8.1 -89.4,7.9 -130.3,-0.9 -273.1,-57.8 -471,-318.7 -629.9,-528.4 l -5.3,-6.9 c -120.4,-158.8 -213.9,-321.5 -303.1,-527.4 -25.1,-57.8 -49.6,-118.2 -75,-184.8 -45.4,-118.9 -11.4,-232.4 91.1,-303.8 55.2,-38.4 129.6,-61.6 204.8,-61.6 73,0 146.7,21.8 204.7,72.6 0,0 0,0 0,0 3,2.6 5.9,5.3 8.8,7.9 2.6,2.4 5.2,4.8 8,7.2 198.8,175.7 357.9,339.9 515.8,532.8 l 4.9,5.9 c 167.9,205.1 341.6,417.2 360.5,692.2 11.6,168.6 -124.1,271.2 -255,295.2"
         style="fill:#eef1ec;fill-opacity:1;fill-rule:nonzero;stroke:none"
         id="path72" />
      <path
         d="m 15610.6,17456.1 c -172.3,253.3 -489,449.2 -869,537.5 -356.7,82.8 -730.1,142.3 -1034.1,-114.1 -83,-70.1 -123,-186.7 -107,-312 11.3,-88.4 50.1,-171.1 106.6,-226.8 164.2,-162.2 365.9,-199 579.5,-237.8 65.2,-11.9 132.7,-24.2 198.8,-40.3 49.3,-12 98.8,-25.1 151.2,-38.8 200.3,-52.7 406.9,-107 604.7,-107 20.7,0 41.3,0.6 61.9,1.8 86.5,5.3 172.1,42.9 241,105.9 110.5,101 173.8,273.6 66.4,431.6"
         style="fill:#eef1ec;fill-opacity:1;fill-rule:nonzero;stroke:none"
         id="path74" />
      <path
         d="m 6294.04,16501.9 c 15.46,22.8 20.78,46.6 19.17,69.1 -2.38,33.1 -20.26,63.1 -46.54,82.1 -33.99,24.6 -81.4,30.7 -124.92,1.1 -271.27,-184.3 -627.51,-184.3 -898.77,0 -99.97,67.9 -220.21,-52.3 -152.25,-152.3 184.26,-271.3 184.26,-627.5 0,-898.7 -67.96,-100 52.28,-220.2 152.25,-152.3 71.2,48.3 148.37,83.7 228.19,106.6 224.32,64.6 470.52,29.3 670.58,-106.6 99.97,-67.9 220.19,52.3 152.29,152.3 -184.25,271.2 -184.25,627.4 0,898.7"
         style="fill:#fcd662;fill-opacity:1;fill-rule:nonzero;stroke:none"
         id="path76" />
      <path
         d="m 5000.66,17516.9 c -18.7,3.5 -36.46,9.5 -54.53,14.7 -215.06,62.6 -379.92,239.3 -422.52,462.3 -17.02,89.2 -144.66,89.2 -161.68,0 -46.2,-241.8 -235.25,-430.9 -477.05,-477 -89.15,-17.1 -89.15,-144.7 0,-161.7 241.8,-46.2 430.85,-235.3 477.05,-477.1 17.02,-89.2 144.66,-89.2 161.68,0 26.63,139.3 101.71,260 206.02,347.1 76.65,64 168.63,110.4 271.03,130 89.14,17 89.14,144.6 0,161.7"
         style="fill:#fcd662;fill-opacity:1;fill-rule:nonzero;stroke:none"
         id="path78" />
      <path
         d="m 4039.84,15310.7 c -10.93,2.1 -21.24,5.8 -31.89,8.7 -159.14,43.2 -281.74,172.4 -313,336.2 -12.33,64.5 -104.61,64.5 -116.93,0 -33.35,-174.7 -170.08,-311.5 -344.95,-344.9 -64.44,-12.3 -64.44,-104.6 0,-116.9 174.87,-33.4 311.6,-170.1 344.95,-344.9 12.32,-64.5 104.6,-64.5 116.93,0 26.4,138.3 118.03,251.8 241.51,310.2 32.59,15.3 66.91,27.8 103.38,34.7 64.5,12.3 64.5,104.6 0,116.9"
         style="fill:#fcd662;fill-opacity:1;fill-rule:nonzero;stroke:none"
         id="path80" />
      <path
         d="m 17547.4,3415.9 c -184.3,271.2 -184.3,627.4 0,898.7 15.5,22.8 20.8,46.6 19.2,69.1 -2.4,33.1 -20.4,63.1 -46.6,82 -34,24.6 -81.4,30.8 -125,1.2 -271.2,-184.3 -627.5,-184.3 -898.7,0 -100,67.9 -220.2,-52.3 -152.3,-152.3 184.3,-271.3 184.3,-627.5 0,-898.7 -67.9,-100.1 52.3,-220.2 152.3,-152.3 71.2,48.3 148.3,83.7 228.2,106.6 224.3,64.6 470.5,29.3 670.5,-106.6 100.1,-67.9 220.3,52.2 152.4,152.3"
         style="fill:#fcd662;fill-opacity:1;fill-rule:nonzero;stroke:none"
         id="path82" />
      <path
         d="m 16254,5329.5 c -18.7,3.6 -36.5,9.6 -54.6,14.8 -215,62.6 -379.9,239.2 -422.5,462.3 -17,89.2 -144.6,89.2 -161.7,0 -46.1,-241.8 -235.2,-430.9 -477,-477.1 -89.2,-17 -89.2,-144.6 0,-161.6 241.8,-46.2 430.9,-235.3 477,-477.1 17.1,-89.1 144.7,-89.1 161.7,0 26.6,139.3 101.7,260 206,347.1 76.7,64 168.7,110.4 271.1,130 89.2,17 89.2,144.6 0,161.6"
         style="fill:#fcd662;fill-opacity:1;fill-rule:nonzero;stroke:none"
         id="path84" />
      <path
         d="m 15293.2,3123.4 c -10.9,2.1 -21.3,5.8 -31.9,8.7 -159.2,43.1 -281.7,172.4 -313,336.2 -12.4,64.5 -104.6,64.5 -116.9,0 -33.4,-174.7 -170.2,-311.5 -345,-344.9 -64.5,-12.3 -64.5,-104.6 0,-116.9 174.8,-33.4 311.6,-170.1 345,-345 12.3,-64.4 104.5,-64.4 116.9,0 26.3,138.4 118,251.9 241.5,310.3 32.6,15.3 66.9,27.8 103.4,34.7 64.4,12.3 64.4,104.6 0,116.9"
         style="fill:#fcd662;fill-opacity:1;fill-rule:nonzero;stroke:none"
         id="path86" />
    </g>
  </g>
</svg>
